<svg xmlns="http://www.w3.org/2000/svg">
  <symbol id="Priority0" viewBox="0 0 16 16">
    <rect x="1.5" y="7.25" width="3" height="1.5" rx="0.5" opacity="0.9"/>
    <rect x="6.5" y="7.25" width="3" height="1.5" rx="0.5" opacity="0.9"/>
    <rect x="11.5" y="7.25" width="3" height="1.5" rx="0.5" opacity="0.9"/>
  </symbol>
  <symbol id="Priority1" viewBox="0 0 16 16">
    <path d="M3 1C1.91067 1 1 1.91067 1 3V13C1 14.0893 1.91067 15 3 15H13C14.0893 15 15 14.0893 15 13V3C15 1.91067 14.0893 1 13 1H3ZM7 4L9 4L8.75391 8.99836H7.25L7 4ZM9 11C9 11.5523 8.55228 12 8 12C7.44772 12 7 11.5523 7 11C7 10.4477 7.44772 10 8 10C8.55228 10 9 10.4477 9 11Z"/>
  </symbol>
  <symbol id="Priority2" viewBox="0 0 16 16">
    <rect x="1.5" y="8" width="3" height="6" rx="1"/>
    <rect x="6.5" y="5" width="3" height="9" rx="1"/>
    <rect x="11.5" y="2" width="3" height="12" rx="1"/>
  </symbol>
  <symbol id="Priority3" viewBox="0 0 16 16">
    <rect x="1.5" y="8" width="3" height="6" rx="1"/>
    <rect x="6.5" y="5" width="3" height="9" rx="1"/>
    <rect x="11.5" y="2" width="3" height="12" rx="1" opacity="0.4"/>
  </symbol>
  <symbol id="Priority4" viewBox="0 0 16 16">
    <rect x="1.5" y="8" width="3" height="6" rx="1"/>
    <rect x="6.5" y="5" width="3" height="9" rx="1" opacity="0.4"/>
    <rect x="11.5" y="2" width="3" height="12" rx="1" opacity="0.4"/>
  </symbol>
  <symbol id="Members" viewBox="0 0 16 16">
    <path fill-rule="evenodd" clip-rule="evenodd" d="M10.9933 10.0137C12.0962 10.0789 12.8652 10.3673 13.4151 10.7998C13.8745 11.1612 14.1329 11.5958 14.2901 11.9014L14.4171 12.1572C14.4895 12.2985 14.5578 12.5105 14.6075 12.6748C14.6647 12.8638 14.725 13.0835 14.7794 13.2881C14.834 13.4937 14.8839 13.6898 14.92 13.834C14.938 13.9059 14.9528 13.9653 14.963 14.0068L14.9786 14.0723C15.0761 14.4747 14.8292 14.8809 14.4269 14.9785C14.0243 15.0759 13.619 14.8283 13.5216 14.4258L13.4649 14.1982C13.4299 14.0584 13.3814 13.8694 13.3292 13.6729C13.2767 13.4754 13.221 13.2747 13.171 13.1094C13.1168 12.9304 13.0863 12.851 13.0831 12.8428L12.9532 12.5869C12.8299 12.3483 12.7123 12.1564 12.4874 11.9795C12.2386 11.7838 11.7871 11.5637 10.9054 11.5117L10.5001 11.5C9.35452 11.5 8.80921 11.7545 8.52451 11.9785C8.2188 12.2193 8.11174 12.4807 7.90342 12.8594C7.908 12.8543 7.87818 12.9233 7.82139 13.1104C7.77177 13.2738 7.71736 13.4731 7.66611 13.6699C7.61516 13.8656 7.56804 14.0541 7.53428 14.1934L7.48057 14.4189C7.38673 14.8224 6.98361 15.0743 6.58018 14.9805C6.17691 14.8866 5.92589 14.4834 6.01963 14.0801L6.07725 13.8398C6.11228 13.6953 6.16022 13.4984 6.21396 13.292C6.26738 13.0869 6.32781 12.8659 6.38584 12.6748C6.43545 12.5114 6.50614 12.2896 6.58896 12.1387C6.72536 11.8909 6.99052 11.2777 7.5958 10.8008C8.22303 10.3069 9.1325 10 10.5001 10L10.9933 10.0137Z"/>
    <path fill-rule="evenodd" clip-rule="evenodd" d="M5.71592 6.0127C5.86516 6.02118 6.00774 6.03415 6.14365 6.05078C6.55479 6.10113 6.84732 6.47558 6.79697 6.88672C6.74639 7.29744 6.37281 7.58914 5.96201 7.53906C5.75847 7.51415 5.52088 7.50001 5.24619 7.5C4.09451 7.50011 3.64308 7.75722 3.43955 7.94336C3.32997 8.04366 3.24909 8.16093 3.17197 8.30859C3.13166 8.3858 3.09633 8.46418 3.05283 8.55859C3.01292 8.64521 2.96118 8.75425 2.90342 8.85938C2.908 8.85434 2.87818 8.92333 2.82139 9.11035C2.77177 9.27378 2.71736 9.47313 2.66611 9.66992C2.61516 9.86558 2.56804 10.0541 2.53428 10.1934L2.48057 10.4189C2.38673 10.8224 1.98361 11.0743 1.58018 10.9805C1.17691 10.8866.925892 10.4834 1.01963 10.0801L1.07725 9.83984C1.11228 9.69532 1.16022 9.49838 1.21396 9.29199C1.26738 9.08686 1.32781 8.86594 1.38584 8.6748C1.43545 8.5114 1.50614 8.28958 1.58896 8.13867C1.61712 8.08751 1.64705 8.02502 1.69053 7.93066C1.73061 7.84367 1.78222 7.73041 1.84287 7.61426C1.96769 7.37529 2.14427 7.09444 2.42686 6.83594C3.00841 6.30406 3.88547 6.00003 5.24717 6L5.71592 6.0127Z"/>
    <path d="M10.5001 5C11.6047 5 12.5001 5.89543 12.5001 7C12.5001 8.10457 11.6047 9 10.5001 9C9.39558 8.99994 8.5001 8.10453 8.5001 7C8.5001 5.89547 9.39558 5.00006 10.5001 5Z"/>
    <path d="M5.5001 1C6.60467 1 7.5001 1.89543 7.5001 3C7.5001 4.10457 6.60467 5 5.5001 5C4.39558 4.99994 3.5001 4.10453 3.5001 3C3.5001 1.89547 4.39558 1.00006 5.5001 1Z"/>
  </symbol>
  <symbol id="StartDate" viewBox="0 0 16 16">
    <path d="M11 1C13.2091 1 15 2.79086 15 5V6.25C15 6.66421 14.6642 7 14.25 7C13.8358 7 13.5 6.66421 13.5 6.25V6H2.5V11C2.5 12.3807 3.61929 13.5 5 13.5H6.25C6.66421 13.5 7 13.8358 7 14.25C7 14.6642 6.66421 15 6.25 15H5C2.79086 15 1 13.2091 1 11V5C1 2.79086 2.79086 1 5 1H11Z"/>
    <path fill-rule="evenodd" clip-rule="evenodd" d="M10.9118 8.16689C11.0947 7.96599 11.4153 7.94327 11.6279 8.11614L14.8823 10.7625C14.8952 10.7731 14.9073 10.7846 14.9185 10.7968C15.0402 10.931 15.0237 11.133 14.8818 11.2479L11.6272 13.8845C11.5351 13.959 11.4179 14 11.2967 14C11.0162 14 10.7889 13.7851 10.7889 13.5201L10.7903 12.1013C8.78103 11.922 6 11.3681 6 11.0389C6 10.79 6.26274 10.4027 10.7882 9.87701L10.7889 8.4799C10.7889 8.36503 10.8325 8.25396 10.9118 8.16689Z"/>
  </symbol>
  <symbol id="TargetDate" viewBox="0 0 16 16">
    <path d="M11 1C13.2091 1 15 2.79086 15 5V11C15 13.2091 13.2091 15 11 15H5C2.79086 15 1 13.2091 1 11V5C1 2.79086 2.79086 1 5 1H11ZM13.5 6H2.5V11C2.5 12.3807 3.61929 13.5 5 13.5H11C12.3807 13.5 13.5 12.3807 13.5 11V6Z"/>
  </symbol>
  <symbol id="Slack" viewBox="0 0 16 16">
    <path d="M3.95144 9.85024C3.95144 10.6639 3.29432 11.3216 2.48128 11.3216C1.66823 11.3216 1.01111 10.6639 1.01111 9.85024C1.01111 9.03655 1.66823 8.37891 2.48128 8.37891H3.95144V9.85024ZM4.68653 9.85024C4.68653 9.03655 5.34365 8.37891 6.15669 8.37891C6.96974 8.37891 7.62686 9.03655 7.62686 9.85024V13.5286C7.62686 14.3423 6.96974 14.9999 6.15669 14.9999C5.34365 14.9999 4.68653 14.3423 4.68653 13.5286V9.85024Z" fill="#E01E5A"/>
    <path d="M9.84333 12.0573C10.6564 12.0573 11.3135 12.7149 11.3135 13.5286C11.3135 14.3423 10.6564 14.9999 9.84333 14.9999C9.03029 14.9999 8.37317 14.3423 8.37317 13.5286V12.0573H9.84333ZM9.84333 11.3216C9.03029 11.3216 8.37317 10.6639 8.37317 9.85024C8.37317 9.03655 9.03029 8.37891 9.84333 8.37891H13.5299C14.3429 8.37891 15.0001 9.03655 15.0001 9.85024C15.0001 10.6639 14.3429 11.3216 13.5299 11.3216H9.84333Z" fill="#ECB22E"/>
    <path d="M12.0486 6.16083C12.0486 5.34713 12.7057 4.68949 13.5188 4.68949C14.3318 4.68949 14.9889 5.34713 14.9889 6.16083C14.9889 6.97452 14.3318 7.63217 13.5188 7.63217H12.0486V6.16083ZM11.3135 6.16083C11.3135 6.97452 10.6564 7.63217 9.84334 7.63217C9.03029 7.63217 8.37317 6.97452 8.37317 6.16083V2.47134C8.37317 1.65764 9.03029 1 9.84334 1C10.6564 1 11.3135 1.65764 11.3135 2.47134V6.16083Z" fill="#2EB67D"/>
    <path d="M6.15672 3.94268C5.34368 3.94268 4.68655 3.28503 4.68655 2.47134C4.68655 1.65764 5.34368 1 6.15672 1C6.96977 1 7.62689 1.65764 7.62689 2.47134V3.94268H6.15672ZM6.15672 4.68949C6.96977 4.68949 7.62689 5.34713 7.62689 6.16083C7.62689 6.97452 6.96977 7.63217 6.15672 7.63217H2.47017C1.65712 7.63217 1 6.97452 1 6.16083C1 5.34713 1.65712 4.68949 2.47017 4.68949H6.15672Z" fill="#36C5F0"/>
  </symbol>
</svg>
